<?xml version="1.0" standalone="no"?>
<!DOCTYPE svg PUBLIC "-//W3C//DTD SVG 20010904//EN"
 "http://www.w3.org/TR/2001/REC-SVG-20010904/DTD/svg10.dtd">
<svg version="1.0" xmlns="http://www.w3.org/2000/svg"
 width="31.000000pt" height="45.000000pt" viewBox="0 0 31.000000 45.000000"
 preserveAspectRatio="xMidYMid meet">

<g transform="translate(0.000000,45.000000) scale(0.100000,-0.100000)"
fill="#ff0000" stroke="none">
<path d="M145 419 c-16 -10 -38 -19 -47 -19 -12 0 -18 -8 -18 -24 0 -14 -11
-38 -25 -54 -17 -20 -25 -42 -25 -67 0 -20 -5 -46 -11 -57 -9 -16 -7 -26 8
-47 22 -28 89 -71 113 -71 8 0 -3 9 -25 19 -22 10 -50 30 -63 43 -19 21 -21
29 -12 52 5 15 10 40 10 56 0 16 11 46 25 66 14 20 25 42 25 48 0 6 18 19 40
29 38 17 40 17 75 0 20 -11 42 -30 48 -43 7 -13 18 -25 24 -27 9 -3 8 3 -2 24
-8 15 -15 33 -15 40 0 6 -13 14 -29 18 -16 3 -35 13 -42 21 -14 17 -17 17 -54
-7z"/>
<path d="M153 334 c-8 -8 -9 -15 -3 -19 10 -6 14 -75 4 -75 -3 0 -15 5 -27 11
-15 8 -12 1 11 -19 17 -17 32 -40 32 -51 0 -25 -1 -25 -45 -7 -51 22 -43 1 10
-24 l45 -22 0 -61 c0 -49 2 -58 13 -48 15 15 13 102 -4 163 -7 23 -15 71 -18
104 -5 50 -8 59 -18 48z"/>
</g>
</svg>
